<svg width="556" height="556" viewBox="0 0 556 556" fill="none" xmlns="http://www.w3.org/2000/svg">
<g clip-path="url(#clip0_344_2)">
<path d="M245.613 25.2632C254.057 -8.44433 301.908 -8.44433 310.387 25.2632L312.854 35.2017C314.298 40.9774 317.261 46.2615 321.435 50.5058C325.61 54.7501 330.845 57.7999 336.596 59.3387C342.347 60.8776 348.405 60.8493 354.141 59.257C359.878 57.6646 365.084 54.5662 369.219 50.2832L376.342 42.9509C400.494 17.9657 441.95 41.9084 432.394 75.3032L429.614 85.1722C427.977 90.8937 427.901 96.9489 429.393 102.71C430.885 108.471 433.891 113.728 438.099 117.936C442.307 122.144 447.564 125.15 453.325 126.642C459.086 128.133 465.141 128.057 470.862 126.42L480.697 123.606C514.057 114.049 538.034 155.506 513.049 179.657L505.717 186.781C501.434 190.916 498.335 196.122 496.743 201.859C495.15 207.595 495.122 213.653 496.661 219.404C498.2 225.155 501.25 230.39 505.494 234.564C509.738 238.739 515.022 241.702 520.798 243.146L530.737 245.613C564.444 254.057 564.444 301.908 530.737 310.387L520.798 312.854C515.022 314.298 509.738 317.261 505.494 321.435C501.25 325.61 498.2 330.845 496.661 336.596C495.122 342.347 495.15 348.405 496.743 354.141C498.335 359.878 501.434 365.084 505.717 369.219L513.049 376.342C538.034 400.494 514.091 441.95 480.697 432.394L470.828 429.614C465.106 427.978 459.051 427.901 453.29 429.393C447.529 430.885 442.272 433.891 438.064 438.099C433.856 442.307 430.85 447.564 429.358 453.325C427.866 459.086 427.943 465.141 429.579 470.862L432.394 480.697C441.95 514.057 400.494 538.034 376.342 513.049L369.219 505.717C365.084 501.434 359.878 498.335 354.141 496.743C348.405 495.15 342.347 495.122 336.596 496.661C330.845 498.2 325.61 501.25 321.435 505.494C317.261 509.738 314.298 515.022 312.854 520.798L310.387 530.737C301.943 564.444 254.092 564.444 245.613 530.737L243.146 520.798C241.702 515.022 238.739 509.738 234.564 505.494C230.39 501.25 225.155 498.2 219.404 496.661C213.653 495.122 207.595 495.15 201.858 496.743C196.122 498.335 190.916 501.434 186.781 505.717L179.657 513.049C155.506 538.034 114.049 514.091 123.606 480.697L126.386 470.828C128.019 465.11 128.095 459.059 126.604 453.302C125.114 447.545 122.111 442.291 117.908 438.085C113.705 433.878 108.454 430.871 102.698 429.376C96.9422 427.88 90.8915 427.951 85.1722 429.579L75.3032 432.394C41.9432 441.95 17.9657 400.494 42.9509 376.342L50.2832 369.219C54.5662 365.084 57.6646 359.878 59.257 354.141C60.8493 348.405 60.8775 342.347 59.3387 336.596C57.7999 330.845 54.7501 325.61 50.5058 321.435C46.2615 317.261 40.9774 314.298 35.2017 312.854L25.2632 310.387C-8.44435 301.943 -8.44435 254.092 25.2632 245.613L35.2017 243.146C40.9774 241.702 46.2615 238.739 50.5058 234.564C54.7501 230.39 57.7999 225.155 59.3387 219.404C60.8775 213.653 60.8493 207.595 59.257 201.859C57.6646 196.122 54.5662 190.916 50.2832 186.781L42.9509 179.657C17.9657 155.506 41.9084 114.049 75.3032 123.606L85.1722 126.386C90.8901 128.019 96.9408 128.095 102.698 126.604C108.455 125.114 113.708 122.111 117.915 117.908C122.122 113.705 125.129 108.454 126.624 102.698C128.119 96.9423 128.049 90.8915 126.42 85.1722L123.606 75.3032C114.049 41.9432 155.506 17.9657 179.657 42.9509L186.781 50.2832C190.916 54.5662 196.122 57.6646 201.858 59.257C207.595 60.8493 213.653 60.8776 219.404 59.3387C225.155 57.7999 230.39 54.7501 234.564 50.5058C238.739 46.2615 241.702 40.9774 243.146 35.2017L245.613 25.2632V25.2632ZM450.812 295.375H286.687L188.206 426.695C213.291 441.846 241.802 450.404 271.085 451.571C300.367 452.737 329.469 446.475 355.68 433.368C381.891 420.261 404.36 400.734 420.993 376.606C437.627 352.479 447.885 324.534 450.812 295.375ZM450.812 260.625C447.885 231.466 437.627 203.521 420.993 179.393C404.36 155.266 381.891 135.739 355.68 122.632C329.469 109.524 300.367 103.263 271.085 104.429C241.802 105.596 213.291 114.153 188.206 129.305L286.687 260.66H450.812V260.625ZM175.418 137.853C174.375 138.583 173.402 139.347 172.395 140.112L175.418 137.853ZM160.441 150.189C142.731 166.434 128.595 186.186 118.934 208.19C109.272 230.194 104.295 253.968 104.319 278C104.319 328.561 125.934 374.084 160.441 405.81L256.281 278L160.441 150.189ZM172.395 415.888L175.418 418.147L172.395 415.888Z" fill="#525A5D" fill-opacity="0.1"/>
</g>
<defs>
<clipPath id="clip0_344_2">
<rect width="556" height="556" fill="white"/>
</clipPath>
</defs>
</svg>
