<svg width="736" height="736" viewBox="0 0 736 736" fill="none" xmlns="http://www.w3.org/2000/svg">
<path d="M197.385 228.152C137.898 228.152 89.5027 276.547 89.5027 336.035C89.5027 395.522 137.898 443.917 197.385 443.917C256.873 443.917 305.268 395.522 305.268 336.035C305.268 276.547 256.873 228.152 197.385 228.152ZM197.385 419.944C151.119 419.944 113.477 382.303 113.477 336.035C113.477 289.767 151.119 252.126 197.385 252.126C243.652 252.126 281.294 289.767 281.294 336.035C281.294 382.303 243.652 419.944 197.385 419.944Z" fill="#525A5D" fill-opacity="0.1"/>
<path d="M359.561 436.052L345.888 422.379C353.691 409.023 359.592 394.825 363.509 379.987H382.784C389.406 379.987 394.771 374.62 394.771 368V304.069C394.771 297.449 389.406 292.083 382.784 292.083H363.509C359.592 277.243 353.689 263.047 345.888 249.69L359.561 236.017C364.242 231.336 364.242 223.746 359.561 219.066L314.356 173.861C309.673 169.179 302.084 169.179 297.403 173.861L283.732 187.532C270.377 179.731 256.179 173.83 241.339 169.911V150.636C241.339 144.016 235.974 138.649 229.352 138.649H165.422C158.8 138.649 153.435 144.016 153.435 150.636V169.911C138.595 173.83 124.398 179.731 111.041 187.532L97.3694 173.861C95.1206 171.612 92.0727 170.349 88.8922 170.349C85.7116 170.349 82.6653 171.612 80.415 173.861L35.2097 219.064C30.5284 223.746 30.5284 231.336 35.2097 236.015L48.8829 249.689C41.0801 263.044 35.1794 277.241 31.262 292.081H11.987C5.36537 292.081 0 297.448 0 304.068V367.998C0 374.618 5.36537 379.985 11.987 379.985H31.262C35.1794 394.825 41.0817 409.023 48.8829 422.378L35.2097 436.051C30.5284 440.732 30.5284 448.322 35.2097 453.002L80.4134 498.207C82.6622 500.456 85.71 501.719 88.8906 501.719C92.0711 501.719 95.1174 500.456 97.3678 498.207L111.039 484.536C124.396 492.337 138.593 498.238 153.433 502.157V521.432C153.433 528.052 158.799 533.419 165.42 533.419H229.351C235.972 533.419 241.338 528.052 241.338 521.432V502.157C256.178 498.238 270.375 492.337 283.73 484.536L297.402 498.207C302.084 502.889 309.673 502.889 314.354 498.207L359.56 453.002C364.241 448.324 364.241 440.734 359.561 436.052ZM342.254 365.615C338.499 384.112 331.245 401.571 320.691 417.509C317.543 422.263 318.179 428.574 322.208 432.603L334.133 444.526L305.879 472.78L293.956 460.857C289.922 456.827 283.612 456.194 278.862 459.339C262.924 469.892 245.464 477.149 226.966 480.903C221.379 482.038 217.364 486.949 217.364 492.65V509.445H177.407V492.65C177.407 486.949 173.391 482.036 167.805 480.903C149.307 477.147 131.845 469.892 115.908 459.339C111.156 456.194 104.844 456.827 100.814 460.857L88.8906 472.78L60.6381 444.528L72.5627 432.605C76.592 428.576 77.2281 422.263 74.0795 417.511C63.5261 401.575 56.27 384.114 52.5141 365.615C51.3809 360.029 46.4679 356.015 40.7669 356.015H23.9739V316.058H40.7685C46.4679 316.058 51.3826 312.043 52.5157 306.457C56.2732 287.959 63.5293 270.498 74.0811 254.562C77.2297 249.808 76.5935 243.497 72.5643 239.468L60.6397 227.545L88.8922 199.292L100.815 211.215C104.846 215.246 111.159 215.879 115.909 212.734C131.847 202.18 149.307 194.924 167.806 191.17C173.392 190.037 177.409 185.124 177.409 179.423V162.623H217.365V179.418C217.365 185.119 221.38 190.03 226.968 191.165C245.466 194.921 262.925 202.175 278.863 212.729C283.615 215.874 289.926 215.241 293.957 211.21L305.88 199.287L334.134 227.541L322.21 239.465C318.181 243.494 317.544 249.807 320.693 254.559C331.248 270.496 338.502 287.956 342.255 306.452C343.39 312.04 348.301 316.055 354.004 316.055H370.797V356.011H354.001C348.3 356.013 343.388 360.028 342.254 365.615Z" fill="#525A5D" fill-opacity="0.1"/>
<path d="M561.789 471.088H547.371C545.267 455.58 539.152 441.336 530.089 429.439L540.306 419.221C544.987 414.54 544.987 406.95 540.304 402.27C535.624 397.587 528.034 397.589 523.353 402.27L513.137 412.486C501.239 403.424 486.994 397.309 471.488 395.204V380.786C471.488 374.166 466.122 368.799 459.501 368.799C452.879 368.799 447.514 374.166 447.514 380.786V395.204C432.006 397.309 417.762 403.424 405.864 412.486L395.648 402.27C390.967 397.589 383.377 397.587 378.697 402.27C374.014 406.951 374.014 414.54 378.696 419.221L388.912 429.439C379.85 441.336 373.735 455.58 371.63 471.088H357.212C350.59 471.088 345.225 476.455 345.225 483.075C345.225 489.695 350.59 495.062 357.212 495.062H371.63C373.735 510.57 379.85 524.814 388.912 536.711L378.696 546.929C374.014 551.61 374.014 559.2 378.697 563.88C381.037 566.221 384.106 567.391 387.173 567.391C390.24 567.391 393.308 566.221 395.65 563.88L405.866 553.664C417.764 562.726 432.009 568.841 447.515 570.946V585.364C447.515 591.984 452.881 597.351 459.502 597.351C466.124 597.351 471.489 591.984 471.489 585.364V570.946C486.997 568.841 501.241 562.726 513.138 553.664L523.354 563.88C525.696 566.221 528.763 567.391 531.832 567.391C534.899 567.391 537.967 566.221 540.307 563.88C544.99 559.199 544.99 551.61 540.309 546.929L530.093 536.711C539.155 524.814 545.27 510.57 547.375 495.062H561.793C568.414 495.062 573.78 489.695 573.78 483.075C573.78 476.455 568.411 471.088 561.789 471.088ZM459.501 547.805C423.808 547.805 394.771 518.767 394.771 483.075C394.771 447.383 423.808 418.345 459.501 418.345C495.193 418.345 524.23 447.383 524.23 483.075C524.23 518.767 495.193 547.805 459.501 547.805Z" fill="#525A5D" fill-opacity="0.1"/>
<path d="M197.385 279.296C166.099 279.296 140.647 304.749 140.647 336.035C140.647 367.321 166.099 392.773 197.385 392.773C228.671 392.773 254.124 367.321 254.124 336.035C254.124 304.749 228.671 279.296 197.385 279.296ZM197.385 368.799C179.319 368.799 164.621 354.102 164.621 336.035C164.621 317.968 179.319 303.27 197.385 303.27C215.452 303.27 230.15 317.968 230.15 336.035C230.15 354.102 215.452 368.799 197.385 368.799Z" fill="#525A5D" fill-opacity="0.1"/>
<path d="M459.501 445.516C438.79 445.516 421.941 462.365 421.941 483.075C421.941 503.785 438.79 520.634 459.501 520.634C480.211 520.634 497.06 503.785 497.06 483.075C497.06 462.365 480.211 445.516 459.501 445.516ZM459.501 496.66C452.009 496.66 445.915 490.566 445.915 483.075C445.915 475.584 452.009 469.49 459.501 469.49C466.992 469.49 473.086 475.584 473.086 483.075C473.086 490.566 466.992 496.66 459.501 496.66Z" fill="#525A5D" fill-opacity="0.1"/>
<path d="M600.148 215.366C565.338 215.366 537.016 243.687 537.016 278.497C537.016 313.307 565.338 341.629 600.148 341.629C634.958 341.629 663.279 313.307 663.279 278.497C663.279 243.687 634.958 215.366 600.148 215.366ZM600.148 317.655C578.555 317.655 560.99 300.088 560.99 278.497C560.99 256.906 578.555 239.34 600.148 239.34C621.74 239.34 639.305 256.906 639.305 278.497C639.305 300.088 621.74 317.655 600.148 317.655Z" fill="#525A5D" fill-opacity="0.1"/>
<path d="M711.905 254.125L711.78 254.121C708.842 240.655 703.52 228.078 696.285 216.836L696.405 216.707C705.713 207.189 705.647 191.873 696.211 182.435C691.607 177.832 685.487 175.296 678.977 175.296C678.976 175.296 678.977 175.296 678.976 175.296C672.557 175.296 666.517 177.76 661.938 182.242L661.809 182.36C650.566 175.125 637.991 169.803 624.526 166.865L624.521 166.74C624.371 153.43 613.498 142.645 600.149 142.643C586.802 142.643 575.928 153.428 575.777 166.74L575.773 166.865C562.307 169.804 549.73 175.125 538.49 182.36L538.36 182.24C528.84 172.932 513.528 172.998 504.087 182.435C494.651 191.873 494.587 207.188 503.892 216.707L504.014 216.838C496.778 228.08 491.458 240.657 488.519 254.122L488.394 254.127C475.082 254.276 464.299 265.152 464.299 278.499C464.299 291.848 475.084 302.722 488.397 302.871L488.519 302.876C491.456 316.341 496.778 328.916 504.014 340.158L503.892 340.289C494.586 349.809 494.651 365.123 504.087 374.559C508.69 379.164 514.812 381.699 521.321 381.699C521.323 381.699 521.321 381.699 521.323 381.699C527.742 381.699 533.78 379.234 538.36 374.754L538.49 374.634C549.73 381.87 562.307 387.19 575.773 390.13L575.777 390.254C575.928 403.566 586.802 414.351 600.148 414.351C600.149 414.351 600.149 414.351 600.151 414.351C606.661 414.351 612.78 411.816 617.383 407.213C621.922 402.674 624.451 396.662 624.521 390.256L624.526 390.131C637.991 387.194 650.566 381.871 661.809 374.636L661.94 374.756C671.459 384.064 686.774 383.997 696.211 374.561C705.649 365.123 705.713 349.807 696.405 340.289L696.285 340.16C703.52 328.918 708.841 316.343 711.78 302.877L711.901 302.872C725.215 302.724 736 291.849 736 278.5C736 265.15 725.217 254.276 711.905 254.125ZM600.148 368.799C550.275 368.799 509.846 328.369 509.846 278.497C509.846 228.625 550.275 188.195 600.148 188.195C650.02 188.195 690.449 228.625 690.449 278.497C690.449 328.369 650.02 368.799 600.148 368.799Z" fill="#525A5D" fill-opacity="0.1"/>
</svg>
