<?xml version="1.0" standalone="no"?>
<!DOCTYPE svg PUBLIC "-//W3C//DTD SVG 20010904//EN"
 "http://www.w3.org/TR/2001/REC-SVG-20010904/DTD/svg10.dtd">
<svg version="1.0" xmlns="http://www.w3.org/2000/svg"
 width="511.000000pt" height="511.000000pt" viewBox="0 0 511.000000 511.000000"
 preserveAspectRatio="xMidYMid meet">
<metadata>
Created by potrace 1.14, written by Peter Selinger 2001-2017
</metadata>
<g transform="translate(0.000000,511.000000) scale(0.100000,-0.100000)"
fill="#000000" stroke="none">
<path d="M2405 4772 c-3 -3 -11 -7 -18 -8 -7 -2 -25 -6 -41 -9 -16 -3 -34 -9
-40 -13 -13 -8 -26 -10 -86 -16 -43 -5 -85 -13 -85 -16 0 -2 -33 -9 -65 -15
-14 -2 -26 -4 -27 -6 -2 -1 -7 -3 -13 -4 -5 -1 -12 -4 -15 -5 -14 -7 -99 -24
-107 -22 -5 1 -8 -2 -8 -7 0 -8 -56 -25 -72 -22 -5 0 -8 -3 -8 -7 0 -5 -6 -9
-12 -9 -18 0 -150 -60 -213 -96 -11 -7 -43 -25 -70 -41 -53 -30 -173 -106
-190 -119 -5 -4 -37 -27 -71 -50 -81 -56 -137 -102 -192 -159 -25 -26 -51 -44
-57 -41 -5 4 -7 3 -3 -1 8 -9 -32 -57 -42 -51 -5 3 -11 -2 -14 -11 -3 -8 -10
-13 -14 -10 -9 5 -107 -98 -107 -112 0 -5 -8 -16 -17 -25 -9 -10 -33 -51 -53
-92 -20 -41 -41 -75 -45 -75 -5 0 -12 -9 -15 -20 -3 -11 -12 -26 -19 -32 -6
-7 -22 -34 -35 -60 -12 -27 -27 -50 -32 -54 -5 -3 -9 -14 -9 -24 0 -10 -7 -25
-15 -34 -9 -8 -16 -18 -16 -20 0 -3 -5 -20 -12 -38 -6 -18 -10 -36 -9 -40 1
-5 -2 -8 -7 -8 -5 0 -13 -19 -17 -42 -4 -24 -8 -45 -9 -48 -4 -16 -28 -97 -33
-110 -8 -23 -13 -44 -14 -57 -1 -7 -6 -13 -12 -13 -6 0 -4 -5 4 -10 11 -7 11
-10 2 -10 -7 0 -12 -8 -11 -17 1 -10 -1 -25 -5 -35 -4 -9 -8 -29 -10 -45 -1
-15 -4 -33 -8 -38 -3 -6 -4 -20 -3 -32 1 -13 -2 -23 -6 -23 -4 0 -8 -19 -8
-42 -1 -38 -7 -83 -11 -83 -1 0 -3 -19 -5 -42 -2 -23 -6 -46 -9 -52 -4 -5 -2
-13 4 -16 7 -4 7 -11 2 -18 -9 -12 -7 -261 2 -342 9 -81 30 -195 36 -195 3 0
7 -12 8 -26 1 -15 8 -48 16 -74 8 -27 12 -51 9 -54 -4 -3 -1 -6 5 -6 7 0 11
-3 11 -7 -1 -5 0 -10 1 -13 1 -3 3 -12 5 -20 10 -37 41 -116 49 -121 5 -4 5
-12 2 -18 -4 -6 -2 -11 5 -11 7 0 9 -3 6 -7 -4 -3 -1 -16 7 -28 8 -12 16 -30
18 -41 2 -10 6 -21 9 -24 3 -3 26 -45 51 -95 74 -145 113 -220 118 -225 3 -3
16 -26 29 -52 13 -27 28 -48 33 -48 4 0 8 -6 8 -13 0 -7 9 -23 20 -35 11 -12
20 -26 20 -32 0 -5 5 -10 10 -10 6 0 15 -11 22 -25 6 -13 15 -22 19 -19 5 3 9
-2 9 -11 0 -9 4 -13 10 -10 5 3 10 0 10 -8 0 -8 13 -25 29 -38 16 -13 27 -27
25 -31 -3 -4 0 -8 5 -8 14 0 51 -37 51 -50 0 -5 4 -10 9 -10 12 0 101 -91 101
-103 0 -4 3 -6 8 -3 4 2 16 -2 27 -10 10 -8 15 -14 11 -14 -5 0 9 -12 30 -26
21 -15 40 -30 42 -35 2 -5 10 -9 17 -9 8 0 20 -8 27 -17 7 -10 20 -19 28 -21
8 -2 17 -8 18 -13 2 -5 10 -9 18 -9 8 0 14 -5 14 -11 0 -6 7 -9 15 -5 8 3 15
1 15 -4 0 -5 12 -15 28 -23 15 -7 62 -34 104 -59 42 -26 79 -44 82 -40 3 3 6
0 6 -6 0 -7 9 -12 21 -12 11 0 17 -4 14 -10 -4 -6 7 -10 24 -10 17 0 31 -5 31
-11 0 -6 7 -9 15 -5 8 3 15 1 15 -5 0 -6 7 -9 15 -5 8 3 15 1 15 -4 0 -6 8
-10 18 -10 10 0 22 -3 26 -7 6 -7 24 -11 59 -15 9 -1 17 -6 17 -10 0 -4 9 -8
20 -8 11 0 20 -6 20 -12 0 -9 4 -8 10 2 6 10 10 11 10 3 0 -7 7 -13 15 -13 8
0 31 -9 52 -20 47 -24 99 -34 239 -44 23 -2 47 -7 54 -11 9 -6 11 -4 5 5 -6 9
-4 11 6 4 7 -4 32 -7 54 -6 48 3 50 3 98 -2 23 -2 37 0 37 8 0 8 3 8 8 0 4 -7
52 -10 132 -8 69 1 125 2 125 4 0 1 20 4 45 6 48 4 95 11 95 14 0 1 17 6 48
13 6 1 17 5 22 8 6 3 24 6 40 7 17 1 32 7 33 12 2 6 8 8 13 4 5 -3 9 0 9 6 0
6 4 9 9 6 5 -4 43 10 85 29 42 20 77 35 79 33 2 -2 12 5 22 15 9 10 24 16 31
13 8 -3 14 -2 14 2 0 4 39 28 88 52 48 24 90 48 94 54 4 6 8 7 8 3 0 -5 14 1
30 13 17 12 30 18 30 13 0 -4 5 0 11 10 5 9 14 17 20 17 5 0 19 9 31 20 12 11
28 20 35 20 7 0 13 5 13 10 0 6 6 10 14 10 8 0 17 7 20 16 3 8 10 12 16 9 5
-3 10 1 10 9 0 8 9 18 20 21 11 3 20 11 20 17 0 6 3 8 7 5 3 -4 13 2 20 13 8
11 19 18 24 15 5 -4 9 1 9 9 0 9 3 16 8 16 4 0 28 20 54 45 27 25 46 45 44 45
-2 0 23 27 55 60 32 33 55 60 52 60 -4 0 2 8 13 19 29 28 55 61 47 61 -3 0 5
11 18 24 28 28 37 39 63 81 11 17 24 35 30 41 6 6 18 22 26 34 8 13 23 32 32
42 10 10 16 18 14 18 -3 0 11 23 30 51 19 28 34 55 34 61 0 5 5 6 10 3 6 -3
10 3 10 13 0 11 7 25 15 32 8 7 15 17 15 22 0 5 8 20 17 35 10 14 18 31 20 37
1 6 7 32 14 59 6 26 15 47 20 47 6 0 8 4 5 9 -4 5 -1 22 6 38 6 15 10 34 9 40
-1 7 3 21 9 32 5 11 13 36 16 57 3 20 10 48 15 61 5 13 7 23 4 23 -2 0 2 18
10 40 8 22 12 40 10 40 -2 0 0 14 5 32 5 17 12 47 15 67 9 60 13 80 21 93 5 7
3 8 -6 3 -9 -6 -11 -4 -5 5 9 15 15 54 19 125 1 28 4 55 7 60 7 13 3 276 -6
340 -3 28 -7 71 -8 97 -1 27 -5 48 -9 48 -4 0 -5 9 -3 20 2 11 -1 20 -6 20 -6
0 -5 8 2 21 6 12 7 19 1 15 -5 -3 -12 15 -16 43 -3 26 -9 51 -13 54 -3 4 -8
21 -10 39 -2 18 -7 34 -11 37 -7 6 -14 28 -15 49 0 6 -4 12 -9 12 -4 0 -8 8
-8 19 0 21 -23 81 -46 124 -8 15 -12 27 -9 27 4 0 -3 16 -15 35 -12 19 -19 35
-16 35 4 0 -1 11 -10 25 -9 14 -13 25 -9 25 4 0 1 7 -6 16 -7 9 -14 23 -15 32
-3 20 -54 71 -54 53 0 -11 -3 -11 -17 0 -9 8 -19 13 -22 11 -3 -2 -7 1 -9 7
-2 6 1 11 7 11 6 0 11 7 11 15 0 8 3 14 8 14 18 -3 20 3 10 34 -6 17 -14 34
-18 37 -7 6 -67 85 -90 120 -8 13 -25 33 -38 46 -13 13 -20 24 -17 24 3 0 -7
13 -22 29 -15 16 -56 58 -90 94 -34 35 -65 62 -68 59 -3 -3 -5 2 -5 11 0 10
-4 17 -9 17 -4 0 -29 20 -53 45 -25 24 -48 42 -52 38 -3 -3 -6 0 -6 8 0 8 -18
24 -40 37 -22 12 -40 27 -40 32 0 6 -7 10 -15 10 -8 0 -15 5 -15 11 0 5 -4 8
-9 5 -5 -4 -11 -3 -13 1 -5 12 -66 53 -78 53 -5 0 -10 3 -10 8 0 4 -23 18 -50
31 -28 14 -50 29 -50 33 0 4 -7 8 -16 8 -9 0 -35 10 -58 21 -22 12 -49 26 -60
31 -10 5 -28 11 -40 14 -11 2 -22 8 -24 14 -2 6 -8 8 -12 5 -5 -3 -18 -1 -30
5 -47 24 -58 28 -110 40 -30 7 -67 18 -81 26 -14 7 -29 11 -32 8 -3 -3 -21 -1
-39 5 -18 5 -44 12 -58 13 -14 2 -29 6 -35 10 -9 5 -60 13 -154 24 -18 2 -39
8 -46 14 -9 7 -15 8 -19 1 -5 -7 -15 -7 -33 0 -14 5 -48 12 -75 14 -27 2 -53
7 -58 10 -6 4 -10 1 -10 -5 0 -6 -5 -8 -12 -3 -15 9 -154 13 -163 5z m280
-376 c28 -2 50 -5 50 -6 0 -1 21 -3 48 -4 51 -3 68 -12 68 -42 2 -44 -5 -104
-11 -104 -3 0 -7 -17 -8 -37 -3 -41 -9 -88 -12 -88 -3 0 -9 -40 -13 -81 -2
-22 -7 -46 -11 -52 -4 -7 -5 -16 -1 -21 3 -5 2 -12 -3 -15 -4 -2 -9 -21 -10
-41 -2 -19 -6 -45 -11 -58 -4 -12 -7 -32 -6 -44 1 -13 -1 -23 -4 -23 -6 0 -12
-30 -14 -72 -1 -10 -4 -18 -7 -18 -3 0 -7 -10 -7 -22 -3 -49 -11 -107 -16
-115 -3 -5 -8 -27 -11 -49 -3 -21 -7 -55 -11 -75 -3 -20 -8 -51 -10 -70 -2
-19 -6 -45 -10 -59 -3 -14 -7 -45 -10 -70 -2 -25 -5 -46 -6 -47 -1 -2 -3 -7
-4 -13 -1 -5 -4 -13 -5 -17 -2 -5 -4 -20 -4 -35 -1 -16 -5 -28 -10 -27 -5 0
-13 -5 -17 -13 -7 -10 -9 -9 -9 5 0 11 -4 15 -12 11 -8 -5 -9 -2 -5 9 3 10 2
17 -3 17 -5 0 -12 11 -16 25 -3 14 -9 25 -13 25 -4 0 -7 10 -8 22 -1 11 -7 24
-13 28 -7 4 -11 10 -10 14 1 4 -7 26 -18 49 -11 23 -39 92 -62 152 -42 111
-70 177 -96 227 -8 15 -14 30 -12 35 1 4 -11 35 -27 68 -15 33 -28 66 -28 73
0 6 -4 12 -8 12 -4 0 -11 10 -14 23 -7 22 -20 52 -56 132 -21 47 -51 118 -54
125 -1 3 -7 18 -13 33 -7 16 -12 33 -12 38 0 5 -4 9 -8 9 -4 0 -8 8 -9 18 -2
29 -29 93 -37 85 -4 -4 -4 0 -1 9 7 19 44 35 95 42 19 2 58 8 85 12 28 5 53 7
58 6 4 -1 7 3 7 9 0 5 4 8 9 5 4 -3 27 -2 51 2 42 7 206 6 305 -2z m440 -101
c17 -5 32 -9 35 -10 14 -3 168 -79 190 -93 14 -9 31 -17 38 -18 8 -2 22 -10
31 -18 10 -9 23 -16 29 -16 7 0 12 -4 12 -9 0 -5 8 -12 18 -15 9 -3 30 -18 47
-33 16 -16 33 -27 37 -25 5 1 8 -5 8 -13 0 -8 4 -15 8 -15 5 0 18 -9 30 -20
12 -12 22 -19 22 -16 0 2 36 -31 80 -74 44 -43 80 -83 80 -87 0 -5 -20 -27
-45 -49 -25 -21 -45 -45 -45 -53 0 -8 -2 -12 -5 -9 -3 2 -32 -20 -64 -51 -33
-31 -92 -85 -131 -121 -73 -67 -122 -114 -299 -282 -56 -54 -104 -98 -107 -98
-3 0 -32 -26 -64 -59 -33 -32 -61 -56 -64 -53 -4 3 -6 1 -6 -5 0 -11 -70 -11
-87 0 -5 3 -8 18 -7 34 6 73 16 161 20 188 3 17 7 44 9 60 3 17 7 41 9 55 2
14 5 40 5 58 1 18 4 31 9 29 4 -3 7 11 7 31 -1 21 3 60 7 87 4 28 11 79 14
113 3 35 7 73 10 85 2 12 7 42 9 67 3 25 8 61 11 80 2 19 7 53 9 75 6 45 12
80 16 80 1 0 3 9 4 20 2 11 6 43 10 70 8 53 12 88 14 118 1 10 6 15 11 12 6
-3 10 -1 10 6 0 8 7 7 23 -3 12 -8 36 -19 52 -23z m-1202 -69 c9 -10 17 -24
18 -30 2 -27 8 -49 16 -55 4 -3 9 -14 11 -23 1 -9 9 -29 17 -44 8 -15 12 -31
9 -36 -3 -4 0 -8 6 -8 6 0 9 -4 5 -9 -3 -5 -1 -12 5 -16 5 -3 10 -13 10 -22 0
-8 6 -29 14 -46 8 -18 25 -61 37 -97 12 -36 27 -71 32 -77 5 -7 6 -13 2 -13
-4 0 -2 -7 5 -15 7 -8 9 -15 5 -15 -4 0 -2 -6 4 -13 9 -12 51 -124 65 -177 3
-8 21 -55 41 -105 21 -49 41 -101 45 -115 5 -14 23 -65 40 -115 39 -110 46
-145 28 -146 -30 -1 -62 -10 -73 -19 -7 -6 -19 -4 -33 6 -12 8 -22 12 -22 8 0
-4 -10 4 -23 17 -12 13 -41 36 -63 52 -22 15 -50 36 -62 47 -12 11 -26 20 -32
20 -5 0 -10 5 -10 10 0 6 -6 10 -14 10 -8 0 -16 3 -18 8 -7 16 -106 91 -112
85 -3 -3 -6 1 -6 10 0 9 -6 17 -13 17 -7 0 -26 14 -42 30 -16 17 -35 30 -42
30 -8 0 -12 4 -8 9 3 5 -4 12 -15 16 -11 3 -28 17 -39 31 -10 13 -22 24 -26
24 -3 0 -12 6 -20 13 -7 6 -21 19 -32 27 -10 8 -32 26 -49 40 -17 14 -41 32
-54 40 -12 8 -32 23 -43 33 -12 10 -35 28 -50 40 -16 12 -36 29 -45 38 -25 22
-76 54 -85 51 -4 -1 -6 1 -5 5 2 5 -7 18 -19 31 -25 24 -30 42 -11 42 6 0 9 3
5 6 -3 3 10 22 29 42 19 20 34 40 34 45 0 4 5 5 10 2 6 -3 10 1 10 9 0 9 5 16
11 16 7 0 22 10 34 23 45 45 105 97 105 90 0 -4 6 0 13 9 15 19 116 88 129 88
5 0 7 4 4 9 -4 5 7 12 24 16 16 4 30 10 30 14 0 9 67 43 94 48 11 2 22 6 25 8
11 12 77 -2 94 -19z m2027 -586 c0 -6 5 -8 10 -5 6 3 10 0 10 -7 0 -7 10 -25
23 -40 12 -14 30 -36 40 -47 9 -12 17 -27 17 -34 0 -8 3 -17 8 -21 4 -4 7 -11
7 -14 0 -4 17 -41 37 -82 46 -96 68 -169 57 -195 -4 -11 -8 -16 -8 -11 -1 5
-11 1 -23 -10 -12 -10 -18 -13 -13 -5 5 9 -1 8 -18 -4 -14 -9 -30 -17 -34 -17
-4 0 -19 -5 -33 -10 -14 -5 -32 -11 -40 -13 -16 -4 -341 -121 -375 -135 -40
-17 -170 -62 -192 -67 -13 -3 -23 -8 -23 -12 0 -4 -10 -8 -22 -8 -13 -1 -32
-6 -43 -11 -72 -33 -115 -41 -115 -22 0 6 -4 10 -10 10 -11 0 -60 48 -60 59 0
5 9 20 20 33 10 14 17 28 14 31 -3 3 4 8 15 12 12 3 19 11 16 16 -4 5 -2 9 4
9 6 0 29 18 51 40 22 22 39 40 37 40 -2 0 28 33 67 73 39 40 74 71 79 69 4 -2
7 1 7 6 0 5 28 38 63 73 34 36 72 77 85 93 12 16 22 26 22 22 0 -4 6 -1 14 6
8 7 12 16 10 20 -2 4 5 13 16 21 11 7 17 17 13 20 -3 4 -1 7 5 7 6 0 23 12 39
28 15 15 45 42 66 60 21 17 35 32 33 32 -3 0 5 10 17 23 12 13 24 22 27 21 3
-2 12 1 19 6 15 8 61 -37 61 -60z m-2760 4 c0 -8 4 -13 9 -10 5 3 11 -1 15 -9
3 -8 12 -15 21 -15 8 0 15 -7 15 -17 0 -9 3 -13 6 -10 4 4 15 -3 25 -15 11
-11 19 -18 19 -14 0 4 11 -3 24 -16 41 -40 71 -63 79 -60 4 1 7 -6 7 -15 0 -9
3 -14 6 -10 3 3 17 -5 31 -19 13 -13 27 -24 31 -24 4 0 24 -16 44 -35 20 -19
42 -35 48 -35 6 0 8 -4 5 -10 -3 -5 -1 -10 6 -10 6 0 24 -13 39 -29 16 -16 32
-30 37 -32 11 -4 95 -74 127 -104 12 -11 52 -47 91 -80 38 -33 81 -70 95 -83
14 -13 37 -30 52 -39 28 -17 42 -55 25 -72 -5 -5 -17 -38 -26 -73 l-17 -63
-39 2 c-37 1 -84 6 -175 19 -45 6 -125 14 -170 17 -19 2 -40 5 -45 8 -6 3 -39
6 -74 8 -36 1 -74 7 -85 13 -15 8 -21 8 -24 -1 -2 -6 -9 -8 -15 -4 -7 5 -28 9
-47 9 -19 1 -48 5 -65 8 -16 4 -61 9 -100 12 -38 3 -72 9 -75 12 -3 4 -32 8
-65 10 -33 1 -67 6 -75 9 -8 3 -35 8 -60 10 -61 4 -71 9 -63 29 5 12 3 15 -6
9 -10 -6 -11 -3 -1 15 6 12 10 24 7 26 -3 3 -1 22 5 42 5 20 10 46 12 58 10
71 41 181 53 191 8 6 13 13 12 15 -5 8 14 48 23 48 6 0 8 3 5 7 -4 3 4 25 18
49 14 23 25 50 25 59 0 9 5 13 10 10 6 -3 10 1 10 9 0 9 4 16 9 16 5 0 12 11
15 25 4 14 11 25 17 25 6 0 8 4 5 9 -3 5 1 12 10 15 8 3 12 10 9 16 -3 5 -1
10 4 10 6 0 11 5 11 10 0 6 5 16 10 23 6 7 19 24 31 40 23 30 69 38 69 11z
m3031 -608 c5 3 9 -11 9 -31 0 -20 5 -45 10 -56 8 -13 7 -19 0 -19 -6 0 -8 -4
-5 -10 23 -38 37 -329 21 -465 -2 -22 -5 -52 -5 -67 -1 -26 -2 -27 -53 -23
-58 4 -136 13 -183 21 -16 3 -45 7 -64 9 -45 6 -103 15 -178 30 -27 6 -89 16
-178 30 -22 3 -46 8 -54 11 -24 8 -84 17 -118 18 -18 1 -33 4 -33 9 0 16 -2
22 -10 32 -5 6 -5 17 0 25 4 7 4 24 0 36 -6 15 -5 26 1 30 7 4 7 10 0 18 -5 6
-13 26 -16 44 -6 33 4 41 90 72 11 4 39 17 63 28 24 12 40 17 37 13 -3 -5 19
2 47 16 29 14 58 26 63 28 6 1 24 8 40 14 17 7 35 14 40 15 6 1 21 8 35 16 14
8 27 15 30 15 9 3 65 25 85 35 25 12 76 32 90 35 6 2 35 13 65 25 55 22 84 31
108 32 6 1 12 5 12 9 0 10 34 17 38 7 2 -5 8 -6 13 -2z m-3375 -329 c4 -4 13
-2 21 4 7 7 13 7 13 2 0 -6 12 -9 28 -8 15 1 45 -3 67 -8 22 -5 61 -10 86 -12
26 -1 50 -4 55 -7 5 -2 28 -4 51 -4 24 1 43 -2 43 -6 0 -4 8 -6 18 -6 18 1 88
-8 137 -17 16 -4 43 -8 60 -10 16 -2 41 -6 55 -9 14 -3 58 -7 98 -8 39 -2 72
-6 72 -9 0 -3 12 -6 28 -6 30 0 103 -10 142 -18 14 -3 51 -6 83 -7 32 -1 62
-7 66 -13 15 -19 20 -55 8 -55 -9 0 -8 -3 0 -8 7 -4 15 -19 17 -32 2 -14 5
-26 7 -27 18 -24 -36 -79 -73 -75 -3 1 -12 -5 -18 -13 -7 -8 -20 -15 -29 -15
-9 0 -21 -4 -27 -10 -5 -5 -18 -11 -29 -13 -11 -2 -36 -11 -55 -19 -19 -9 -55
-24 -80 -34 -25 -9 -67 -28 -95 -40 -52 -24 -193 -83 -210 -88 -16 -5 -45 -17
-103 -42 -29 -13 -55 -24 -57 -24 -2 0 -37 -15 -77 -34 -131 -61 -193 -90
-198 -91 -3 0 -19 -8 -36 -17 -29 -16 -48 -13 -50 7 -1 19 -17 70 -25 81 -5 6
-11 26 -13 45 -3 19 -10 49 -15 67 -5 17 -7 32 -5 32 3 0 2 6 -3 13 -10 16
-14 36 -14 71 0 15 -4 39 -9 52 -6 14 -6 26 0 29 5 3 6 16 2 28 -7 19 -7 76
-1 295 1 17 5 32 10 32 4 0 10 9 14 19 6 18 27 22 41 8z m2592 -400 c7 -5 12
-3 12 3 0 6 4 8 10 5 9 -6 42 -10 150 -19 30 -3 55 -6 55 -7 0 -2 78 -11 117
-12 21 -1 38 -5 38 -8 0 -3 12 -6 28 -6 15 0 45 -4 67 -7 38 -7 92 -13 161
-20 16 -1 34 -5 40 -8 5 -2 24 -4 42 -3 17 0 32 -4 32 -10 0 -5 5 -3 10 5 8
13 10 12 11 -5 3 -29 2 -34 -16 -95 -9 -30 -18 -62 -19 -70 -2 -8 -9 -35 -16
-60 -7 -25 -14 -54 -14 -65 -3 -33 -17 -69 -35 -89 -9 -10 -14 -19 -12 -20 3
0 -2 -12 -10 -26 -62 -103 -79 -132 -79 -140 0 -5 -8 -16 -17 -26 -10 -9 -18
-24 -20 -33 -1 -8 -7 -17 -12 -19 -6 -2 -11 -10 -11 -17 0 -11 -6 -12 -30 -4
-16 6 -27 15 -24 20 3 5 -1 9 -9 9 -8 0 -18 7 -21 16 -4 9 -9 14 -12 11 -3 -3
-16 4 -28 16 -13 12 -37 33 -55 46 -17 14 -44 36 -60 50 -15 14 -47 42 -72 61
-24 19 -51 43 -61 53 -10 9 -18 14 -18 10 -1 -5 -10 3 -20 16 -11 13 -20 20
-20 16 0 -5 -11 4 -25 19 -13 14 -27 26 -30 26 -4 0 -26 16 -49 35 -24 19 -47
31 -51 27 -5 -4 -5 -2 -2 4 4 7 -4 19 -18 28 -37 24 -84 73 -78 80 4 3 1 6 -5
6 -7 0 1 13 16 30 16 16 37 47 48 69 10 23 23 41 27 41 5 0 6 4 3 8 -3 5 4 23
14 40 19 31 39 37 68 19z m-1293 -87 c4 -6 11 -8 16 -4 6 3 8 -5 5 -19 -4 -25
-90 -149 -107 -155 -5 -2 -7 -8 -3 -13 3 -5 0 -9 -5 -9 -6 0 -11 -6 -11 -14 0
-8 -3 -16 -7 -18 -5 -1 -20 -21 -36 -44 -15 -22 -36 -50 -47 -62 -11 -12 -20
-24 -20 -27 0 -3 -11 -18 -25 -33 -14 -15 -38 -42 -53 -60 -15 -18 -37 -44
-49 -59 -13 -14 -23 -30 -23 -35 0 -5 -4 -6 -10 -3 -5 3 -10 2 -10 -4 0 -5
-18 -29 -40 -52 -22 -24 -40 -47 -40 -51 0 -4 -7 -8 -16 -8 -8 0 -13 -4 -10
-9 4 -5 -6 -20 -22 -33 -15 -12 -28 -27 -29 -32 0 -4 -19 -28 -42 -52 -22 -24
-41 -46 -41 -48 0 -2 -15 -20 -32 -39 -18 -19 -44 -49 -58 -67 -14 -18 -31
-38 -38 -46 -7 -8 -11 -14 -8 -14 3 0 -2 -9 -11 -19 -9 -11 -23 -17 -32 -13
-28 10 -157 150 -180 194 -8 15 -21 36 -30 46 -9 10 -27 39 -41 65 -13 26 -28
47 -32 47 -5 0 -8 6 -8 14 0 7 -11 29 -24 49 -13 19 -22 38 -18 41 3 3 1 6 -5
6 -16 0 -34 51 -31 87 2 35 5 37 116 79 39 15 72 30 72 33 0 4 8 7 18 8 10 1
48 15 85 32 37 17 72 31 77 31 6 0 10 4 10 8 0 5 7 9 15 10 8 1 22 3 30 4 8 1
15 5 15 9 0 7 49 24 63 21 4 -1 7 2 7 7 0 8 34 21 54 20 5 -1 12 4 16 11 4 6
17 12 28 13 12 1 22 5 22 9 0 4 4 8 9 8 5 0 22 5 38 12 15 6 31 11 36 10 4 -1
7 2 7 8 0 6 9 10 20 10 11 0 20 5 20 12 0 6 3 9 6 5 4 -3 21 1 38 10 17 10 33
18 36 18 3 0 28 11 55 24 28 12 55 24 60 25 6 2 27 10 47 20 21 9 44 16 52 16
8 0 17 4 20 8 2 4 19 9 37 10 18 1 35 5 38 7 7 8 19 6 26 -5z m269 -250 c-2
-45 -11 -133 -18 -180 -2 -14 -7 -58 -11 -97 -4 -40 -10 -73 -14 -73 -3 0 -6
-16 -5 -35 1 -19 -1 -35 -5 -35 -4 0 -7 -10 -6 -21 1 -12 -4 -52 -11 -90 -8
-37 -15 -85 -18 -106 -2 -21 -5 -38 -6 -38 -1 0 -4 -18 -6 -40 -6 -45 -12 -80
-14 -80 -1 0 -3 -14 -5 -30 -2 -17 -6 -46 -9 -65 -4 -19 -9 -55 -12 -80 -3
-25 -7 -56 -11 -70 -8 -38 -13 -71 -16 -113 -2 -20 -8 -42 -14 -48 -12 -12
-86 -15 -103 -4 -6 3 -34 11 -63 16 -28 5 -61 11 -72 14 -11 2 -21 4 -22 5 -2
2 -6 3 -10 4 -32 5 -133 43 -133 49 0 5 -4 5 -10 2 -5 -3 -10 -1 -10 6 0 7 -3
10 -6 6 -8 -8 -124 54 -124 66 0 4 -4 5 -10 2 -9 -6 -19 0 -55 33 -8 7 -15 11
-15 7 0 -11 -38 30 -42 45 -2 8 -9 21 -16 28 -10 11 -10 17 -1 28 6 8 9 14 5
14 -7 0 13 25 64 80 20 21 51 57 70 81 19 23 52 60 72 81 20 21 34 38 32 38
-2 0 10 14 26 32 17 17 41 45 53 61 12 16 34 42 50 58 15 17 27 34 27 40 0 6
5 7 10 4 6 -3 10 1 10 10 0 8 7 18 15 21 8 4 15 12 15 20 0 8 5 14 12 14 6 0
9 2 6 5 -3 3 6 19 21 34 58 63 91 103 91 113 0 5 5 6 10 3 6 -3 10 -2 10 4 0
6 18 29 40 52 22 23 40 46 40 51 0 5 5 6 10 3 6 -3 10 -2 10 4 0 13 117 133
145 148 17 10 21 9 25 -10 3 -11 5 -42 4 -67z m751 -15 c15 -11 41 -32 58 -47
18 -16 34 -28 38 -28 3 0 22 -15 42 -32 19 -18 54 -49 77 -68 24 -19 50 -42
60 -50 10 -8 32 -26 51 -40 18 -14 41 -33 51 -42 10 -10 18 -16 18 -13 0 5 31
-19 62 -47 10 -10 18 -15 18 -12 0 3 6 -1 13 -8 8 -7 26 -22 41 -33 15 -11 36
-27 46 -35 10 -8 34 -28 54 -44 20 -15 36 -34 36 -41 0 -8 -16 -31 -36 -52
-20 -21 -41 -45 -48 -54 -6 -8 -22 -23 -36 -32 -13 -9 -20 -17 -15 -17 5 0 -6
-11 -25 -25 -19 -14 -30 -25 -24 -25 5 -1 -3 -8 -18 -16 -16 -8 -28 -19 -28
-24 0 -6 -5 -10 -10 -10 -6 0 -25 -13 -43 -29 -110 -100 -217 -174 -239 -166
-16 7 -39 55 -32 66 3 5 0 9 -5 9 -6 0 -10 3 -9 8 2 12 -14 63 -48 151 -18 46
-31 88 -28 93 3 4 1 8 -3 8 -7 0 -43 86 -49 117 -4 25 -29 73 -37 73 -5 0 -5
5 -2 10 4 6 2 16 -3 23 -6 7 -11 17 -12 22 -5 21 -12 41 -21 57 -5 10 -9 25
-9 33 0 8 -4 15 -10 15 -5 0 -9 3 -9 8 3 16 -14 72 -22 72 -5 0 -6 7 -3 15 4
8 2 15 -3 15 -4 0 -14 26 -22 57 -7 31 -19 67 -27 79 -11 16 -12 24 -3 29 8 6
8 9 -1 15 -7 4 3 10 27 15 21 4 44 11 51 17 6 6 12 8 12 5 0 -2 15 -1 33 3 37
8 53 3 92 -25z m-458 -13 c18 -24 65 -108 68 -122 3 -9 18 -43 43 -100 14 -30
26 -57 27 -60 1 -3 7 -18 13 -33 7 -16 12 -33 12 -38 0 -5 5 -9 11 -9 5 0 8
-4 5 -8 -2 -4 2 -21 9 -37 25 -54 58 -130 59 -137 1 -3 4 -10 9 -14 4 -4 7
-15 7 -25 0 -9 4 -19 10 -21 5 -1 11 -12 13 -23 2 -11 8 -30 15 -41 6 -12 8
-24 5 -28 -3 -3 -1 -6 5 -6 7 0 12 -7 12 -15 0 -8 4 -23 9 -33 25 -50 41 -94
36 -103 -4 -5 -2 -9 2 -9 5 0 15 -21 22 -47 8 -27 20 -60 27 -74 19 -39 24
-77 11 -88 -19 -15 -119 -51 -129 -45 -4 3 -8 0 -8 -5 0 -6 -6 -11 -13 -11 -8
0 -52 -12 -98 -27 -60 -19 -107 -26 -166 -27 -44 -1 -80 -3 -78 -6 5 -9 -152
-6 -161 2 -4 4 -13 3 -20 -3 -9 -7 -15 -6 -20 3 -10 16 -12 78 -2 78 3 0 5 8
4 17 -2 9 1 37 6 62 30 150 38 194 43 231 2 14 6 39 9 55 9 45 18 98 21 120 3
25 13 81 21 120 3 17 7 44 9 60 2 17 7 44 11 60 4 17 7 41 7 55 0 14 4 28 9
31 4 3 9 24 11 47 1 23 4 42 7 42 3 0 7 12 9 28 6 55 9 77 12 82 1 3 3 10 4
15 2 6 4 12 5 15 2 7 8 31 12 55 9 52 34 58 65 17z"/>
</g>
</svg>
