<svg width="546" height="546" viewBox="0 0 546 546" fill="none" xmlns="http://www.w3.org/2000/svg">
<path d="M300.863 116.51L259.473 44.7272L222.445 65.2438C212.314 56.9663 201.333 50.8196 189.142 46.5977V6.92627H106.34V47.6278C105.808 47.8987 105.255 48.1781 104.684 48.466C96.289 52.7124 85.2688 58.2855 76.1563 65.2448L41.1718 44.6141L0 116.683L35.6212 137.142C34.6913 143.103 34.221 149.251 34.221 155.491C34.221 161.506 34.7286 167.664 35.7363 173.865L0.304992 194.333L41.9354 266.414L76.2033 245.769C85.3072 252.713 96.3061 258.274 104.686 262.511C105.257 262.8 105.811 263.08 106.344 263.35V306.12H189.146V255.335H172.586V289.56H122.904V253.359L118.539 251.016C116.692 250.024 114.489 248.911 112.157 247.731C103.07 243.136 90.6253 236.843 82.4972 229.506L77.9372 225.388L47.8379 243.522L22.9267 200.388L54.3046 182.261L53.0516 176.376C51.5447 169.299 50.7801 162.272 50.7801 155.488C50.7801 148.294 51.5 141.267 52.9193 134.602L54.1756 128.7L22.5737 110.55L47.2205 67.4075L77.9863 85.5492L82.5004 81.4734C90.6296 74.1344 103.075 67.8405 112.16 63.2443C114.49 62.0659 116.692 60.9526 118.537 59.9619L122.902 57.619V23.4865H172.584V58.9083L178.586 60.6262C192.821 64.701 204.669 71.3095 215.874 81.4254L220.263 85.3882L253.26 67.1057L278.196 110.35L246.617 128.301L247.88 134.231C249.155 140.215 249.722 146.542 249.722 154.746C249.722 160.953 248.524 166.529 247.134 172.985L246.726 174.888L262.924 178.338L263.324 176.467C264.779 169.705 266.283 162.713 266.283 154.746C266.283 147.938 265.927 142.189 265.152 136.816L300.863 116.51Z" fill="#E9ECF5"/>
<path d="M508.091 296.841C508.091 286.35 506.876 275.78 504.472 265.335L546 241.371L504.536 169.529L461.651 193.429C446.045 179.001 426.855 168.201 405.539 161.855V115.123H321.632V161.872C302.098 167.81 285.083 177.932 268.877 193.28L228.324 169.295L196.846 224.568L187.653 210.837C176.705 218.166 163.919 222.041 150.683 222.041C113.986 222.041 84.1309 192.186 84.1309 155.488C84.1309 118.791 113.986 88.9362 150.683 88.9362C187.38 88.9362 217.235 118.791 217.235 155.488C217.235 157.96 217.099 160.452 216.829 162.891L233.289 164.709C233.625 161.668 233.795 158.566 233.795 155.488C233.795 109.66 196.51 72.3749 150.681 72.3749C104.852 72.3749 67.5675 109.66 67.5675 155.488C67.5675 201.317 104.852 238.602 150.681 238.602C167.186 238.602 183.133 233.773 196.804 224.638L187.279 241.364L228.875 265.192C226.524 274.096 224.38 284.042 224.38 295.081H240.941C240.941 284.041 243.78 273.318 246.528 263.406L248.243 257.311L209.837 235.264L234.388 192.142L271.508 214.083L276.049 209.459C293.127 192.072 310.887 181.501 331.939 176.193L338.195 174.616V131.683H388.98V174.616L395.236 176.193C418.27 182.001 438.729 193.505 454.4 209.459L458.823 213.964L498.348 191.935L523.378 235.305L485.218 257.325L486.93 263.503C489.985 274.527 491.532 285.745 491.532 296.84C491.532 307.613 489.938 318.829 486.795 330.175L485.087 336.339L523.018 358.338L497.707 401.71L458.862 379.68L454.404 384.219C438.957 399.945 417.945 411.759 395.235 417.484L388.979 419.061V463.996H348.129V480.556H405.539V431.822C426.842 425.479 446.021 414.692 461.621 400.28L503.766 424.181L545.691 352.341L504.344 328.36C506.833 317.691 508.091 307.112 508.091 296.841Z" fill="#E9ECF5"/>
<path d="M366.865 189.008C307.281 189.008 258.807 237.672 258.807 297.29H275.367C275.367 246.504 316.421 205.568 366.873 205.568C417.324 205.568 458.378 246.39 458.378 296.842C458.378 347.293 417.683 388.339 366.897 388.339V404.9C426.516 404.898 474.94 356.536 474.94 296.953C474.94 237.37 426.45 189.008 366.865 189.008Z" fill="#E9ECF5"/>
<path d="M150.681 97.3202C118.607 97.3202 92.5118 123.415 92.5118 155.489C92.5118 187.564 118.607 213.658 150.681 213.658C182.755 213.658 208.849 187.564 208.849 155.489C208.849 123.415 182.755 97.3202 150.681 97.3202ZM150.681 197.097C127.738 197.097 109.072 178.432 109.072 155.489C109.072 132.547 127.738 113.88 150.681 113.88C173.624 113.88 192.289 132.547 192.289 155.489C192.289 178.432 173.624 197.097 150.681 197.097Z" fill="#E9ECF5"/>
<path d="M366.865 213.727C321.036 213.727 283.751 251.012 283.751 296.84C283.751 310.086 286.946 323.269 292.992 334.963L307.703 327.358C302.799 317.871 300.312 307.604 300.312 296.842C300.312 260.144 330.167 230.289 366.864 230.289C403.561 230.289 433.416 260.144 433.416 296.842C433.416 333.539 403.561 363.394 366.864 363.394C361.869 363.394 356.893 362.839 352.074 361.746L348.412 377.897C354.431 379.262 360.639 379.954 366.864 379.954C412.693 379.954 449.978 342.669 449.978 296.84C449.979 251.012 412.694 213.727 366.865 213.727Z" fill="#E9ECF5"/>
<path d="M406.64 281.829H322.733V298.389H406.64V281.829Z" fill="#E9ECF5"/>
<path d="M390.08 306.118H339.294V322.679H390.08V306.118Z" fill="#E9ECF5"/>
<path d="M131.734 148.24H115.174V164.8H131.734V148.24Z" fill="#E9ECF5"/>
<path d="M157.126 148.24H140.566V164.8H157.126V148.24Z" fill="#E9ECF5"/>
<path d="M181.416 148.24H164.856V164.8H181.416V148.24Z" fill="#E9ECF5"/>
<path d="M316.941 421.562C316.941 418.488 316.759 415.409 316.389 412.26L351.22 392.15L318.071 334.733L281.699 354.856C276.147 351.055 269.782 347.954 264.219 345.55V306.121H196.872V345.714C192.07 348.082 187.361 351.04 182.651 354.645L148.718 334.477L116.011 392.205L151.07 412.302C150.755 415.297 150.596 418.394 150.596 421.562C150.596 424.554 150.791 427.635 151.19 430.877L116.402 450.98L149.752 508.709L182.708 488.53C187.396 492.112 192.086 495.053 196.872 497.412V539.075H264.219V497.574C269.767 495.176 276.112 492.087 281.654 488.3L317.282 508.432L350.901 451.018L316.264 430.911C316.654 428.018 316.941 424.833 316.941 421.562ZM328.213 456.992L311.233 485.99L280.019 468.353L275.613 472.124C268.738 478.004 256.79 482.788 252.864 484.36L247.662 486.443V522.514H213.437V486.443L208.235 484.36C201.694 481.739 195.322 477.737 188.758 472.124L184.185 468.212L155.598 485.714L139.029 457.033L169.442 439.457L168.382 433.71C167.56 429.25 167.16 425.276 167.16 421.562C167.16 417.207 167.504 413.235 168.207 409.416L169.273 403.646L138.546 386.033L154.795 357.351L184.255 374.86L188.765 371.003C195.335 365.383 201.703 361.379 208.233 358.767L213.435 356.683V322.683H247.66V356.683L252.862 358.767C256.787 360.338 268.732 365.119 275.611 371.003L279.976 374.735L311.86 357.095L328.598 386.087L298.154 403.664L299.215 409.414C299.998 413.66 300.38 417.633 300.38 421.561C300.38 425.86 299.702 430.114 299.038 433.708L297.981 439.444L328.213 456.992Z" fill="#E9ECF5"/>
<path d="M233.828 371.708C206.338 371.708 183.973 394.072 183.973 421.562C183.973 449.052 206.338 471.417 233.828 471.417C261.318 471.417 283.682 449.052 283.682 421.562C283.682 394.072 261.319 371.708 233.828 371.708ZM233.828 454.856C215.47 454.856 200.534 439.921 200.534 421.563C200.534 403.205 215.47 388.27 233.828 388.27C252.186 388.27 267.121 403.205 267.121 421.563C267.122 439.921 252.187 454.856 233.828 454.856Z" fill="#E9ECF5"/>
<path d="M233.828 396.653C220.092 396.653 208.917 407.828 208.917 421.563C208.917 435.298 220.092 446.473 233.828 446.473C247.563 446.473 258.738 435.298 258.738 421.563C258.739 407.828 247.563 396.653 233.828 396.653ZM233.828 429.912C229.224 429.912 225.478 426.166 225.478 421.562C225.478 416.958 229.224 413.212 233.828 413.212C238.431 413.212 242.178 416.958 242.178 421.562C242.178 426.166 238.432 429.912 233.828 429.912Z" fill="#E9ECF5"/>
</svg>
